<svg xmlns="http://www.w3.org/2000/svg" data-name="Layer 1" viewBox="0 0 24 24"><path d="M12,13a2,2,0,0,0-2,2v7a2,2,0,0,0,4,0V15A2,2,0,0,0,12,13Zm1,9a1,1,0,0,1-2,0V15a1,1,0,0,1,2,0ZM19.5,0h-3A1.5,1.5,0,0,0,15,1.5v1a.5.5,0,0,1-.5.5h-5A.5.5,0,0,1,9,2.5v-1A1.5,1.5,0,0,0,7.5,0h-3a.5.5,0,0,0,0,1h3a.5.5,0,0,1,.5.5v1A1.5,1.5,0,0,0,9.5,4h2v7.05A4,4,0,0,0,8,15v4H6.5a.5.5,0,0,0,0,1H8v1.5a.5.5,0,0,0,1,0V15a3,3,0,0,1,3-3,3,3,0,0,1,3,3v6.5a.5.5,0,0,0,1,0V18h1.5a.5.5,0,0,0,0-1H16V15a4,4,0,0,0-3.5-4V4h2A1.5,1.5,0,0,0,16,2.5v-1a.5.5,0,0,1,.5-.5h3a.5.5,0,0,0,0-1Z"/></svg>