<?xml version="1.0" encoding="UTF-8"?>
<svg xmlns="http://www.w3.org/2000/svg" xmlns:xlink="http://www.w3.org/1999/xlink" width="100px" height="100px" viewBox="0 0 100 100" version="1.1">
<g id="surface1">
<path style=" stroke:none;fill-rule:nonzero;fill:rgb(0%,0%,0%);fill-opacity:1;" d="M 73.332031 45.832031 C 72.742188 45.832031 72.160156 45.867188 71.582031 45.925781 L 67.050781 24.167969 L 78.855469 24.167969 C 80.929688 24.167969 81.667969 25.765625 81.667969 27.132812 C 81.667969 28.503906 80.929688 30.101562 78.855469 30.101562 C 77.933594 30.101562 77.1875 30.847656 77.1875 31.769531 C 77.1875 32.6875 77.933594 33.433594 78.855469 33.433594 C 82.414062 33.433594 85 30.785156 85 27.132812 C 85 23.484375 82.414062 20.832031 78.855469 20.832031 L 65 20.832031 C 64.941406 20.832031 64.890625 20.859375 64.832031 20.867188 C 64.773438 20.875 64.71875 20.855469 64.660156 20.867188 C 64.605469 20.878906 64.5625 20.914062 64.511719 20.933594 C 64.402344 20.964844 64.300781 21.007812 64.203125 21.0625 C 64.109375 21.117188 64.027344 21.171875 63.945312 21.238281 C 63.863281 21.308594 63.792969 21.378906 63.726562 21.464844 C 63.65625 21.546875 63.601562 21.628906 63.546875 21.726562 C 63.5 21.816406 63.464844 21.910156 63.433594 22.011719 C 63.398438 22.121094 63.375 22.226562 63.363281 22.34375 C 63.359375 22.398438 63.332031 22.445312 63.332031 22.5 C 63.332031 22.558594 63.359375 22.609375 63.367188 22.667969 C 63.375 22.726562 63.355469 22.78125 63.367188 22.839844 L 65.726562 34.167969 L 39.882812 34.167969 L 36.851562 27.5 L 41.667969 27.5 C 42.585938 27.5 43.332031 26.753906 43.332031 25.832031 C 43.332031 24.914062 42.585938 24.167969 41.667969 24.167969 L 34.21875 24.167969 C 34.214844 24.167969 34.214844 24.167969 34.214844 24.167969 L 28.332031 24.167969 C 27.414062 24.167969 26.667969 24.914062 26.667969 25.832031 C 26.667969 26.753906 27.414062 27.5 28.332031 27.5 L 33.1875 27.5 L 36.980469 35.832031 L 32.015625 46.730469 C 30.335938 46.15625 28.539062 45.832031 26.667969 45.832031 C 17.476562 45.832031 10 53.308594 10 62.5 C 10 71.691406 17.476562 79.167969 26.667969 79.167969 C 35.292969 79.167969 42.410156 72.578125 43.25 64.167969 L 50 64.167969 C 50.019531 64.167969 50.035156 64.160156 50.054688 64.160156 C 50.171875 64.15625 50.289062 64.144531 50.402344 64.117188 C 50.464844 64.101562 50.519531 64.070312 50.578125 64.050781 C 50.644531 64.023438 50.714844 64.003906 50.78125 63.972656 C 50.839844 63.941406 50.890625 63.894531 50.949219 63.855469 C 51.003906 63.816406 51.0625 63.785156 51.113281 63.738281 C 51.191406 63.667969 51.253906 63.585938 51.320312 63.503906 C 51.339844 63.476562 51.367188 63.453125 51.386719 63.425781 L 66.957031 40.066406 L 68.320312 46.605469 C 61.574219 48.738281 56.667969 55.054688 56.667969 62.5 C 56.667969 71.691406 64.144531 79.167969 73.332031 79.167969 C 82.523438 79.167969 90 71.691406 90 62.5 C 90 53.308594 82.523438 45.832031 73.332031 45.832031 Z M 26.667969 75.832031 C 19.316406 75.832031 13.332031 69.851562 13.332031 62.5 C 13.332031 55.148438 19.316406 49.167969 26.667969 49.167969 C 28.046875 49.167969 29.378906 49.378906 30.632812 49.769531 L 25.148438 61.808594 C 24.914062 62.324219 24.957031 62.925781 25.265625 63.402344 C 25.570312 63.878906 26.097656 64.167969 26.667969 64.167969 L 39.882812 64.167969 C 39.058594 70.734375 33.453125 75.832031 26.667969 75.832031 Z M 33.660156 51.167969 C 37.007812 53.242188 39.371094 56.75 39.882812 60.832031 L 29.257812 60.832031 Z M 43.25 60.832031 C 42.707031 55.402344 39.539062 50.746094 35.046875 48.117188 L 38.753906 39.980469 L 47.496094 60.832031 Z M 50.335938 58.992188 L 41.328125 37.5 L 64.664062 37.5 Z M 73.332031 75.832031 C 65.980469 75.832031 60 69.851562 60 62.5 C 60 56.664062 63.773438 51.703125 69.007812 49.902344 L 71.703125 62.839844 C 71.863281 63.625 72.558594 64.167969 73.332031 64.167969 C 73.445312 64.167969 73.558594 64.15625 73.671875 64.132812 C 74.574219 63.945312 75.152344 63.0625 74.964844 62.160156 L 72.269531 49.21875 C 72.621094 49.191406 72.972656 49.167969 73.332031 49.167969 C 80.683594 49.167969 86.667969 55.148438 86.667969 62.5 C 86.667969 69.851562 80.683594 75.832031 73.332031 75.832031 Z M 73.332031 75.832031 "/>
</g>
</svg>
