<?xml version="1.0" encoding="UTF-8"?>
<svg xmlns="http://www.w3.org/2000/svg" xmlns:xlink="http://www.w3.org/1999/xlink" width="100px" height="100px" viewBox="0 0 100 100" version="1.1">
<g id="surface1">
<path style=" stroke:none;fill-rule:nonzero;fill:rgb(0%,0%,0%);fill-opacity:1;" d="M 58.96875 32.421875 L 66.757812 32.421875 C 67.621094 32.421875 68.320312 31.722656 68.320312 30.859375 C 68.320312 29.996094 67.621094 29.296875 66.757812 29.296875 L 58.96875 29.296875 C 58.105469 29.296875 57.40625 29.996094 57.40625 30.859375 C 57.40625 31.722656 58.105469 32.421875 58.96875 32.421875 Z M 58.96875 41.992188 L 77.414062 41.992188 C 78.277344 41.992188 78.976562 41.292969 78.976562 40.429688 C 78.976562 39.566406 78.277344 38.867188 77.414062 38.867188 L 58.96875 38.867188 C 58.105469 38.867188 57.40625 39.566406 57.40625 40.429688 C 57.40625 41.292969 58.105469 41.992188 58.96875 41.992188 Z M 58.96875 51.5625 L 77.414062 51.5625 C 78.277344 51.5625 78.976562 50.863281 78.976562 50 C 78.976562 49.136719 78.277344 48.4375 77.414062 48.4375 L 58.96875 48.4375 C 58.105469 48.4375 57.40625 49.136719 57.40625 50 C 57.40625 50.863281 58.105469 51.5625 58.96875 51.5625 Z M 58.96875 61.132812 L 77.414062 61.132812 C 78.277344 61.132812 78.976562 60.433594 78.976562 59.570312 C 78.976562 58.707031 78.277344 58.007812 77.414062 58.007812 L 58.96875 58.007812 C 58.105469 58.007812 57.40625 58.707031 57.40625 59.570312 C 57.40625 60.433594 58.105469 61.132812 58.96875 61.132812 Z M 22.585938 32.421875 L 30.375 32.421875 C 31.238281 32.421875 31.9375 31.722656 31.9375 30.859375 C 31.9375 29.996094 31.238281 29.296875 30.375 29.296875 L 22.585938 29.296875 C 21.722656 29.296875 21.023438 29.996094 21.023438 30.859375 C 21.023438 31.722656 21.722656 32.421875 22.585938 32.421875 Z M 22.585938 41.992188 L 41.03125 41.992188 C 41.894531 41.992188 42.59375 41.292969 42.59375 40.429688 C 42.59375 39.566406 41.894531 38.867188 41.03125 38.867188 L 22.585938 38.867188 C 21.722656 38.867188 21.023438 39.566406 21.023438 40.429688 C 21.023438 41.292969 21.722656 41.992188 22.585938 41.992188 Z M 22.585938 51.5625 L 41.03125 51.5625 C 41.894531 51.5625 42.59375 50.863281 42.59375 50 C 42.59375 49.136719 41.894531 48.4375 41.03125 48.4375 L 22.585938 48.4375 C 21.722656 48.4375 21.023438 49.136719 21.023438 50 C 21.023438 50.863281 21.722656 51.5625 22.585938 51.5625 Z M 22.585938 61.132812 L 41.03125 61.132812 C 41.894531 61.132812 42.59375 60.433594 42.59375 59.570312 C 42.59375 58.707031 41.894531 58.007812 41.03125 58.007812 L 22.585938 58.007812 C 21.722656 58.007812 21.023438 58.707031 21.023438 59.570312 C 21.023438 60.433594 21.722656 61.132812 22.585938 61.132812 Z M 22.585938 61.132812 "/>
<path style=" stroke:none;fill-rule:nonzero;fill:rgb(0%,0%,0%);fill-opacity:1;" d="M 94.441406 25.390625 L 88.085938 25.390625 L 88.085938 23.902344 C 88.09375 19.675781 84.679688 16.234375 80.449219 16.210938 L 60.640625 16.210938 C 59.75 16.21875 58.863281 16.378906 58.027344 16.691406 L 51.546875 19.058594 C 50.546875 19.421875 49.453125 19.425781 48.453125 19.0625 L 41.972656 16.6875 C 41.136719 16.378906 40.25 16.214844 39.355469 16.210938 L 19.550781 16.210938 C 15.320312 16.234375 11.90625 19.675781 11.914062 23.902344 L 11.914062 25.390625 L 5.558594 25.390625 C 4.671875 25.402344 3.945312 26.109375 3.90625 26.996094 L 3.90625 82.1875 C 3.945312 83.074219 4.671875 83.777344 5.558594 83.789062 L 94.441406 83.789062 C 95.328125 83.777344 96.054688 83.074219 96.09375 82.1875 L 96.09375 26.996094 C 96.054688 26.109375 95.328125 25.402344 94.441406 25.390625 Z M 59.09375 19.628906 C 59.589844 19.441406 60.113281 19.34375 60.640625 19.335938 L 80.449219 19.335938 C 82.953125 19.359375 84.96875 21.398438 84.960938 23.902344 L 84.960938 66.273438 C 84.960938 68.769531 82.945312 70.703125 80.449219 70.703125 L 60.640625 70.703125 C 59.746094 70.71875 58.863281 70.890625 58.027344 71.210938 L 51.5625 73.613281 L 51.5625 22.304688 C 51.921875 22.226562 52.273438 22.125 52.613281 21.996094 Z M 15.039062 23.902344 C 15.03125 21.398438 17.046875 19.359375 19.550781 19.335938 L 39.359375 19.335938 C 39.886719 19.34375 40.410156 19.441406 40.902344 19.628906 L 47.386719 21.996094 C 47.726562 22.125 48.078125 22.226562 48.4375 22.304688 L 48.4375 73.613281 L 41.972656 71.214844 C 41.136719 70.890625 40.253906 70.71875 39.355469 70.703125 L 19.550781 70.703125 C 17.054688 70.703125 15.039062 68.769531 15.039062 66.273438 Z M 92.96875 80.664062 L 7.03125 80.664062 L 7.03125 28.515625 L 11.914062 28.515625 L 11.914062 66.273438 C 11.917969 68.289062 12.722656 70.222656 14.15625 71.640625 C 15.589844 73.058594 17.53125 73.847656 19.550781 73.828125 L 39.359375 73.828125 C 39.886719 73.84375 40.410156 73.953125 40.902344 74.148438 L 47.386719 76.53125 C 49.070312 77.152344 50.925781 77.160156 52.613281 76.546875 L 59.09375 74.144531 C 59.589844 73.949219 60.113281 73.84375 60.640625 73.828125 L 80.449219 73.828125 C 82.46875 73.847656 84.410156 73.058594 85.84375 71.640625 C 87.277344 70.222656 88.082031 68.289062 88.085938 66.273438 L 88.085938 28.515625 L 92.96875 28.515625 Z M 92.96875 80.664062 "/>
</g>
</svg>
