<?xml version="1.0" encoding="UTF-8"?>
<svg xmlns="http://www.w3.org/2000/svg" xmlns:xlink="http://www.w3.org/1999/xlink" width="100px" height="100px" viewBox="0 0 100 100" version="1.1">
<g id="surface1">
<path style=" stroke:none;fill-rule:nonzero;fill:rgb(0%,0%,0%);fill-opacity:1;" d="M 72.917969 100 L 22.917969 100 C 21.816406 100 20.90625 99.144531 20.835938 98.046875 L 16.671875 31.378906 C 16.636719 30.804688 16.839844 30.242188 17.234375 29.824219 C 17.625 29.40625 18.175781 29.167969 18.75 29.167969 L 77.082031 29.167969 C 77.660156 29.167969 78.207031 29.40625 78.601562 29.824219 C 78.996094 30.242188 79.199219 30.804688 79.164062 31.378906 L 74.996094 98.046875 C 74.925781 99.144531 74.015625 100 72.917969 100 Z M 24.871094 95.832031 L 70.957031 95.832031 L 74.863281 33.332031 L 20.964844 33.332031 Z M 24.871094 95.832031 "/>
<path style=" stroke:none;fill-rule:nonzero;fill:rgb(0%,0%,0%);fill-opacity:1;" d="M 81.25 33.332031 L 14.582031 33.332031 C 13.433594 33.332031 12.5 32.402344 12.5 31.25 L 12.5 14.582031 C 12.5 13.433594 13.433594 12.5 14.582031 12.5 L 81.25 12.5 C 82.402344 12.5 83.332031 13.433594 83.332031 14.582031 L 83.332031 31.25 C 83.332031 32.402344 82.402344 33.332031 81.25 33.332031 Z M 16.667969 29.167969 L 79.167969 29.167969 L 79.167969 16.667969 L 16.667969 16.667969 Z M 16.667969 29.167969 "/>
<path style=" stroke:none;fill-rule:nonzero;fill:rgb(0%,0%,0%);fill-opacity:1;" d="M 77.125 16.667969 L 18.75 16.667969 C 18.082031 16.667969 17.453125 16.34375 17.058594 15.800781 C 16.667969 15.257812 16.5625 14.558594 16.773438 13.925781 L 20.941406 1.425781 C 21.222656 0.574219 22.019531 0 22.917969 0 L 72.917969 0 C 73.8125 0 74.609375 0.574219 74.894531 1.425781 L 78.933594 13.550781 C 79.304688 14.195312 79.300781 14.988281 78.925781 15.628906 C 78.554688 16.273438 77.867188 16.667969 77.125 16.667969 Z M 21.640625 12.5 L 74.195312 12.5 L 71.417969 4.167969 L 24.417969 4.167969 Z M 76.042969 50 L 19.792969 50 C 18.640625 50 17.707031 49.066406 17.707031 47.917969 C 17.707031 46.765625 18.640625 45.832031 19.792969 45.832031 L 76.042969 45.832031 C 77.191406 45.832031 78.125 46.765625 78.125 47.917969 C 78.125 49.066406 77.191406 50 76.042969 50 Z M 21.355469 70.832031 L 74.480469 70.832031 L 74.480469 75 L 21.355469 75 Z M 54.167969 62.5 L 41.667969 62.5 C 40.515625 62.5 39.582031 61.566406 39.582031 60.417969 C 39.582031 59.265625 40.515625 58.332031 41.667969 58.332031 L 54.167969 58.332031 C 55.316406 58.332031 56.25 59.265625 56.25 60.417969 C 56.25 61.566406 55.316406 62.5 54.167969 62.5 Z M 54.167969 62.5 "/>
</g>
</svg>
