<?xml version="1.0" encoding="UTF-8"?>
<svg xmlns="http://www.w3.org/2000/svg" xmlns:xlink="http://www.w3.org/1999/xlink" width="100px" height="100px" viewBox="0 0 100 100" version="1.1">
<g id="surface1">
<path style=" stroke:none;fill-rule:nonzero;fill:rgb(0%,0%,0%);fill-opacity:1;" d="M 28.125 53.125 C 26.398438 53.125 25 54.523438 25 56.25 L 25 59.375 L 21.875 59.375 C 20.148438 59.375 18.75 60.773438 18.75 62.5 C 18.75 64.226562 20.148438 65.625 21.875 65.625 L 25 65.625 L 25 68.75 C 25 70.476562 26.398438 71.875 28.125 71.875 C 29.851562 71.875 31.25 70.476562 31.25 68.75 L 31.25 65.625 L 34.375 65.625 C 36.101562 65.625 37.5 64.226562 37.5 62.5 C 37.5 60.773438 36.101562 59.375 34.375 59.375 L 31.25 59.375 L 31.25 56.25 C 31.25 54.523438 29.851562 53.125 28.125 53.125 Z M 40.625 71.875 C 40.625 73.601562 42.023438 75 43.75 75 L 46.875 75 C 48.601562 75 50 73.601562 50 71.875 C 50 70.148438 48.601562 68.75 46.875 68.75 L 43.75 68.75 C 42.023438 68.75 40.625 70.148438 40.625 71.875 Z M 56.25 75 C 54.523438 75 53.125 73.601562 53.125 71.875 C 53.125 70.148438 54.523438 68.75 56.25 68.75 L 59.375 68.75 C 61.101562 68.75 62.5 70.148438 62.5 71.875 C 62.5 73.601562 61.101562 75 59.375 75 Z M 67.1875 62.5 C 69.777344 62.5 71.875 60.402344 71.875 57.8125 C 71.875 55.222656 69.777344 53.125 67.1875 53.125 C 64.597656 53.125 62.5 55.222656 62.5 57.8125 C 62.5 60.402344 64.597656 62.5 67.1875 62.5 Z M 81.25 70.3125 C 81.25 72.902344 79.152344 75 76.5625 75 C 73.972656 75 71.875 72.902344 71.875 70.3125 C 71.875 67.722656 73.972656 65.625 76.5625 65.625 C 79.152344 65.625 81.25 67.722656 81.25 70.3125 Z M 81.25 70.3125 "/>
<path style=" stroke:none;fill-rule:evenodd;fill:rgb(0%,0%,0%);fill-opacity:1;" d="M 56.25 12.5 C 54.523438 12.5 53.125 13.898438 53.125 15.625 L 53.125 31.25 L 56.25 31.25 C 57.976562 31.25 59.375 32.648438 59.375 34.375 L 59.375 40.625 L 69.464844 40.625 C 82.878906 40.625 93.75 51.496094 93.75 64.910156 C 93.75 81.414062 77.820312 92.683594 62.125 89.289062 C 57.082031 88.195312 52.730469 87.5 50 87.5 C 47.269531 87.5 42.917969 88.195312 37.875 89.289062 C 22.179688 92.683594 6.25 81.414062 6.25 64.910156 C 6.25 51.496094 17.121094 40.625 30.535156 40.625 L 40.625 40.625 L 40.625 34.375 C 40.625 32.648438 42.023438 31.25 43.75 31.25 L 46.875 31.25 L 46.875 15.625 C 46.875 10.449219 51.070312 6.25 56.25 6.25 C 61.429688 6.25 65.625 10.449219 65.625 15.625 L 65.625 25 C 65.625 26.726562 67.023438 28.125 68.75 28.125 C 70.476562 28.125 71.875 26.726562 71.875 25 L 71.875 9.375 C 71.875 7.648438 73.273438 6.25 75 6.25 C 76.726562 6.25 78.125 7.648438 78.125 9.375 L 78.125 25 C 78.125 30.175781 73.929688 34.375 68.75 34.375 C 63.570312 34.375 59.375 30.175781 59.375 25 L 59.375 15.625 C 59.375 13.898438 57.976562 12.5 56.25 12.5 Z M 46.875 40.625 L 53.125 40.625 L 53.125 37.5 L 46.875 37.5 Z M 30.535156 46.875 C 20.574219 46.875 12.5 54.949219 12.5 64.910156 C 12.5 76.988281 24.304688 85.828125 36.550781 83.179688 C 41.609375 82.085938 46.539062 81.25 50 81.25 C 53.460938 81.25 58.390625 82.085938 63.449219 83.179688 C 75.695312 85.828125 87.5 76.988281 87.5 64.910156 C 87.5 54.949219 79.425781 46.875 69.464844 46.875 Z M 30.535156 46.875 "/>
</g>
</svg>
