<svg xmlns="http://www.w3.org/2000/svg" width="32" height="32" fill="none" viewBox="0 0 32 32"><path fill="#000" d="M9 17C8.44772 17 8 17.4477 8 18V19H7C6.44772 19 6 19.4477 6 20 6 20.5523 6.44772 21 7 21H8V22C8 22.5523 8.44772 23 9 23 9.55228 23 10 22.5523 10 22V21H11C11.5523 21 12 20.5523 12 20 12 19.4477 11.5523 19 11 19H10V18C10 17.4477 9.55228 17 9 17zM13 23C13 23.5523 13.4477 24 14 24H15C15.5523 24 16 23.5523 16 23 16 22.4477 15.5523 22 15 22H14C13.4477 22 13 22.4477 13 23zM18 24C17.4477 24 17 23.5523 17 23 17 22.4477 17.4477 22 18 22H19C19.5523 22 20 22.4477 20 23 20 23.5523 19.5523 24 19 24H18zM21.5 20C22.3284 20 23 19.3284 23 18.5 23 17.6716 22.3284 17 21.5 17 20.6716 17 20 17.6716 20 18.5 20 19.3284 20.6716 20 21.5 20zM26 22.5C26 23.3284 25.3284 24 24.5 24 23.6716 24 23 23.3284 23 22.5 23 21.6716 23.6716 21 24.5 21 25.3284 21 26 21.6716 26 22.5z"/><path fill="#000" fill-rule="evenodd" d="M18 4C17.4477 4 17 4.44772 17 5V10H18C18.5523 10 19 10.4477 19 11V13H22.229C26.5208 13 30 16.4792 30 20.771C30 26.053 24.9026 29.6582 19.8806 28.5719C18.2661 28.2226 16.8732 28 16 28C15.1268 28 13.7339 28.2226 12.1194 28.5719C7.09742 29.6582 2 26.053 2 20.771C2 16.4792 5.47918 13 9.77097 13H13V11C13 10.4477 13.4477 10 14 10H15V5C15 3.34315 16.3431 2 18 2C19.6569 2 21 3.34315 21 5V8C21 8.55228 21.4477 9 22 9C22.5523 9 23 8.55228 23 8V3C23 2.44772 23.4477 2 24 2C24.5523 2 25 2.44772 25 3V8C25 9.65685 23.6569 11 22 11C20.3431 11 19 9.65685 19 8V5C19 4.44772 18.5523 4 18 4ZM15 13H17V12H15V13ZM9.77097 15C6.58375 15 4 17.5837 4 20.771C4 24.6362 7.77807 27.4647 11.6965 26.6171C13.3152 26.2669 14.8928 26 16 26C17.1072 26 18.6848 26.2669 20.3035 26.6171C24.2219 27.4647 28 24.6362 28 20.771C28 17.5837 25.4163 15 22.229 15H9.77097Z" clip-rule="evenodd"/></svg>